<svg width="40" height="40" viewBox="0 0 40 40" fill="none" xmlns="http://www.w3.org/2000/svg">
<path d="M16 28.5714L26.38 20L16 11.4286V28.5714ZM39.12 6.2C39.38 7.54286 39.56 9.34286 39.68 11.6286C39.82 13.9143 39.88 15.8857 39.88 17.6L40 20C40 26.2571 39.68 30.8571 39.12 33.8C38.62 36.3714 37.46 38.0286 35.66 38.7429C34.72 39.1143 33 39.3714 30.36 39.5429C27.76 39.7429 25.38 39.8286 23.18 39.8286L20 40C11.62 40 6.4 39.5429 4.34 38.7429C2.54 38.0286 1.38 36.3714 0.88 33.8C0.62 32.4571 0.44 30.6571 0.32 28.3714C0.18 26.0857 0.12 24.1143 0.12 22.4L0 20C0 13.7429 0.32 9.14286 0.88 6.2C1.38 3.62857 2.54 1.97143 4.34 1.25714C5.28 0.885714 7 0.628571 9.64 0.457142C12.24 0.257142 14.62 0.171428 16.82 0.171428L20 0C28.38 0 33.6 0.457143 35.66 1.25714C37.46 1.97143 38.62 3.62857 39.12 6.2Z" fill="white"/>
</svg>
